<?xml version="1.0" encoding="utf-8"?>
<!-- Generator: Adobe Illustrator 24.2.1, SVG Export Plug-In . SVG Version: 6.00 Build 0)  -->
<svg version="1.1" id="Layer_1" xmlns="http://www.w3.org/2000/svg" xmlns:xlink="http://www.w3.org/1999/xlink" x="0px" y="0px"
	 viewBox="0 0 512 512" style="enable-background:new 0 0 512 512;" xml:space="preserve">
<style type="text/css">
	.st0{fill:#2C3E50;enable-background:new    ;}
	.st1{fill:#00E6DF;}
</style>
<g>
	<path class="st0" d="M124.6,369.3h-11c-6.6,0-12-5.4-12-12V182.7c0-6.6,5.4-12,12-12h11c6.6,0,12,5.4,12,12v174.6
		C136.6,363.9,131.2,369.3,124.6,369.3z"/>
	<path class="st0" d="M215.9,369.3h-11c-6.6,0-12-5.4-12-12V182.7c0-6.6,5.4-12,12-12h11c6.6,0,12,5.4,12,12v174.6
		C227.9,363.9,222.5,369.3,215.9,369.3z"/>
	<path class="st0" d="M398.4,369.3h-11c-6.6,0-12-5.4-12-12V182.7c0-6.6,5.4-12,12-12h11c6.6,0,12,5.4,12,12v174.6
		C410.4,363.9,405,369.3,398.4,369.3z"/>
	<path class="st0" d="M307.1,369.3h-11c-6.6,0-12-5.4-12-12V182.7c0-6.6,5.4-12,12-12h11c6.6,0,12,5.4,12,12v174.6
		C319.1,363.9,313.7,369.3,307.1,369.3z"/>
	<rect x="81" y="377.9" class="st0" width="350" height="30"/>
	<rect x="56" y="417.8" class="st0" width="400" height="30"/>
	<path class="st0" d="M444.6,158.2L257.3,64.5c-0.8-0.4-1.8-0.4-2.7,0L67.4,158.2c-2.8,1.4-1.8,5.7,1.3,5.7h374.6
		C446.5,163.8,447.5,159.6,444.6,158.2z M256,157.2c-20.5,0-37.2-16.6-37.2-37.2c0-20.5,16.6-37.2,37.2-37.2s37.2,16.6,37.2,37.2
		C293.2,140.5,276.5,157.2,256,157.2z"/>
	<path class="st0" d="M270.3,98.8c-3.3-2.5-8.2-3.8-14.6-3.8h-16.8v24.3h-2.2v5.5h2.2v1.5h-2.2v5.5h2.2v13h7.8v-13h19.2v-5.5h-19.2
		v-1.5h9c6.4,0,11.3-1.3,14.6-3.8s5-6.3,5-11.2C275.3,105.1,273.6,101.4,270.3,98.8z M264.1,116.9c-2,1.7-4.8,2.5-8.4,2.5h-9v-18.8
		h9c3.6,0,6.4,0.8,8.4,2.5c2,1.6,3,3.9,3,6.9C267.2,112.9,266.1,115.2,264.1,116.9z"/>
</g>
<g>
	<path class="st1" d="M131.6,371.3h-11c-6.6,0-12-5.4-12-12V184.7c0-6.6,5.4-12,12-12h11c6.6,0,12,5.4,12,12v174.6
		C143.6,365.9,138.2,371.3,131.6,371.3z"/>
	<path class="st1" d="M222.9,371.3h-11c-6.6,0-12-5.4-12-12V184.7c0-6.6,5.4-12,12-12h11c6.6,0,12,5.4,12,12v174.6
		C234.9,365.9,229.5,371.3,222.9,371.3z"/>
	<path class="st1" d="M405.4,371.3h-11c-6.6,0-12-5.4-12-12V184.7c0-6.6,5.4-12,12-12h11c6.6,0,12,5.4,12,12v174.6
		C417.4,365.9,412,371.3,405.4,371.3z"/>
	<path class="st1" d="M314.1,371.3h-11c-6.6,0-12-5.4-12-12V184.7c0-6.6,5.4-12,12-12h11c6.6,0,12,5.4,12,12v174.6
		C326.1,365.9,320.7,371.3,314.1,371.3z"/>
	<rect x="88" y="379.9" class="st1" width="350" height="30"/>
	<rect x="63" y="419.8" class="st1" width="400" height="30"/>
	<path class="st1" d="M451.6,160.2L264.3,66.5c-0.8-0.4-1.8-0.4-2.7,0L74.4,160.2c-2.8,1.4-1.8,5.7,1.3,5.7h374.6
		C453.5,165.8,454.5,161.6,451.6,160.2z M263,159.2c-20.5,0-37.2-16.6-37.2-37.2c0-20.5,16.6-37.2,37.2-37.2s37.2,16.6,37.2,37.2
		C300.2,142.5,283.5,159.2,263,159.2z"/>
	<path class="st1" d="M277.3,100.8c-3.3-2.5-8.2-3.8-14.6-3.8h-16.8v24.3h-2.2v5.5h2.2v1.5h-2.2v5.5h2.2v13h7.8v-13h19.2v-5.5h-19.2
		v-1.5h9c6.4,0,11.3-1.3,14.6-3.8c3.3-2.5,5-6.3,5-11.2C282.3,107.1,280.6,103.4,277.3,100.8z M271.1,118.9c-2,1.7-4.8,2.5-8.4,2.5
		h-9v-18.8h9c3.6,0,6.4,0.8,8.4,2.5c2,1.6,3,3.9,3,6.9C274.2,114.9,273.1,117.2,271.1,118.9z"/>
</g>
</svg>
